<?xml version="1.0" encoding="utf-8"?>
<svg xmlns="http://www.w3.org/2000/svg" style="margin: auto; background: none; display: block; shape-rendering: auto;" width="286" height="84" preserveAspectRatio="xMidYMid">
<style type="text/css">
  text {
    text-anchor: middle; font-size: 48px; opacity: 0;
  }
</style>
<g style="transform-origin: 143px 42px; transform: scale(0.888889);">
<g transform="translate(143,42)">
  <g transform="translate(0,0)"><g class="path" style="transform: scale(0.91); transform-origin: -121.2px -0.305428px; animation: 1s linear -0.609231s infinite normal forwards running breath-01202488-2f2e-4e23-af9a-f4556c24ea28;"><path d="M11.34-7.34L11.34-7.34L11.34-7.34Q11.34 0.76 16.58 3.35L16.58 3.35L16.58 3.35Q17.87 3.51 20.01 3.51L20.01 3.51L20.01 3.51Q22.14 3.51 24.52 2.70L24.52 2.70L24.52 2.70Q26.89 1.89 28.19 0.70L28.19 0.70L28.19 0.70Q30.94-1.84 31.64-3.67L31.64-3.67L31.91-4.48L32.99-4.05L32.99-4.05Q32.62-2.81 31.54-1.19L31.54-1.19L31.54-1.19Q30.46 0.43 29.08 1.57L29.08 1.57L29.08 1.57Q27.70 2.70 25.08 3.65L25.08 3.65L25.08 3.65Q22.46 4.59 19.28 4.59L19.28 4.59L19.28 4.59Q12.47 4.59 8.72 0.65L8.72 0.65L8.72 0.65Q4.97-3.29 4.97-10.48L4.97-10.48L4.97-10.48Q4.97-20.25 11.29-26.57L11.29-26.57L11.29-26.57Q17.60-32.89 27.86-32.89L27.86-32.89L27.86-32.89Q32.62-32.89 34.72-31.18L34.72-31.18L34.72-31.18Q36.83-29.48 36.83-25.87L36.83-25.87L36.83-25.87Q36.83-23.44 34.45-19.87L34.45-19.87L34.45-19.87Q32.29-16.42 32.29-14.47L32.29-14.47L31.10-14.47L31.10-14.47Q31.10-15.55 31.54-16.79L31.54-16.79L31.54-16.79Q31.97-18.04 32.29-18.58L32.29-18.58L32.29-18.58Q32.62-19.12 33.48-20.52L33.48-20.52L33.48-20.52Q35.59-23.71 35.59-25.76L35.59-25.76L35.59-25.76Q35.59-30.08 32.02-31.21L32.02-31.21L32.02-31.21Q30.35-31.75 28.51-31.75L28.51-31.75L28.51-31.75Q26.68-31.75 24.62-31.54L24.62-31.54L24.62-31.54Q22.73-30.94 21.03-30.00L21.03-30.00L21.03-30.00Q19.33-29.05 17.50-27.13L17.50-27.13L17.50-27.13Q15.66-25.22 14.36-22.68L14.36-22.68L14.36-22.68Q13.07-20.14 12.20-16.17L12.20-16.17L12.20-16.17Q11.34-12.20 11.34-7.34" fill="#268496" stroke="none" stroke-width="none" transform="translate(-142.10003662109375,13.844571603628303)" style="fill: rgb(38, 132, 150);"></path></g><g class="path" style="transform: scale(0.91); transform-origin: -92.475px 3.58457px; animation: 1s linear -0.558462s infinite normal forwards running breath-01202488-2f2e-4e23-af9a-f4556c24ea28;"><path d="M57.02 0.49L57.02 0.49L57.02 0.49Q52.27 0.49 51.84-3.67L51.84-3.67L51.84-3.67Q49.46 0.49 45.85 0.49L45.85 0.49L45.85 0.49Q42.23 0.49 40.09-1.70L40.09-1.70L40.09-1.70Q37.96-3.89 37.96-7.83L37.96-7.83L37.96-7.83Q37.96-13.99 40.99-17.50L40.99-17.50L40.99-17.50Q44.01-21.01 48.82-21.01L48.82-21.01L48.82-21.01Q52.76-21.01 54.05-17.28L54.05-17.28L54.05-17.28Q54.32-18.90 54.65-20.52L54.65-20.52L54.65-20.52Q58.64-20.52 60.59-20.84L60.59-20.84L61.29-21.01L57.56-0.59L57.56-0.59Q59.18-0.76 60.26-2.11L60.26-2.11L61.07-1.46L61.07-1.46Q59.45 0.49 57.02 0.49zM44.06-5.08L44.06-5.08Q44.06-2.65 44.68-1.70L44.68-1.70L44.68-1.70Q45.31-0.76 46.60-0.76L46.60-0.76L46.60-0.76Q47.90-0.76 49.25-2.16L49.25-2.16L49.25-2.16Q51.03-4.00 52.11-6.80L52.11-6.80L52.11-6.80Q52.27-7.51 52.73-10.18L52.73-10.18L52.73-10.18Q53.19-12.85 53.51-14.58L53.51-14.58L53.51-14.58Q53.35-16.63 52.38-18.14L52.38-18.14L52.38-18.14Q51.41-19.66 49.95-19.66L49.95-19.66L49.95-19.66Q47.30-19.66 45.68-14.93L45.68-14.93L45.68-14.93Q44.06-10.21 44.06-5.08L44.06-5.08" fill="#268496" stroke="none" stroke-width="none" transform="translate(-142.10003662109375,13.844571603628303)" style="fill: rgb(104, 156, 197);"></path></g><g class="path" style="transform: scale(0.91); transform-origin: -67.85px 3.33957px; animation: 1s linear -0.507692s infinite normal forwards running breath-01202488-2f2e-4e23-af9a-f4556c24ea28;"><path d="M65.23-18.41L64.42-19.06L64.42-19.06Q66.04-21.01 68.50-21.01L68.50-21.01L68.50-21.01Q70.96-21.01 72.31-19.76L72.31-19.76L72.31-19.76Q73.66-18.52 73.66-16.25L73.66-16.25L73.66-15.93L73.66-15.93Q76.09-21.01 79.97-21.01L79.97-21.01L79.97-21.01Q84.13-21.01 84.13-16.69L84.13-16.69L84.13-16.69Q84.13-14.90 82.94-12.91L82.94-12.91L82.94-12.91Q81.76-10.91 80.57-9.10L80.57-9.10L80.57-9.10Q79.38-7.29 79.38-5.89L79.38-5.89L78.08-5.89L78.08-5.89Q78.08-7.88 80.41-11.29L80.41-11.29L80.41-11.29Q82.73-14.69 82.73-16.55L82.73-16.55L82.73-16.55Q82.73-18.41 82.00-19.09L82.00-19.09L82.00-19.09Q81.27-19.76 79.84-19.76L79.84-19.76L79.84-19.76Q78.41-19.76 77.03-18.52L77.03-18.52L77.03-18.52Q75.65-17.28 74.74-15.39L74.74-15.39L74.74-15.39Q73.28-12.58 72.79-10.80L72.79-10.80L72.79-10.75L70.85 0L64.37 0L67.93-19.93L67.93-19.93Q66.31-19.76 65.23-18.41L65.23-18.41" fill="#268496" stroke="none" stroke-width="none" transform="translate(-142.10003662109375,13.844571603628303)" style="fill: rgb(94, 111, 163);"></path></g><g class="path" style="transform: scale(0.91); transform-origin: -46.68px 3.33957px; animation: 1s linear -0.456923s infinite normal forwards running breath-01202488-2f2e-4e23-af9a-f4556c24ea28;"><path d="M86.40-18.41L85.59-19.06L85.59-19.06Q87.21-21.01 89.67-21.01L89.67-21.01L89.67-21.01Q92.12-21.01 93.47-19.76L93.47-19.76L93.47-19.76Q94.82-18.52 94.82-16.25L94.82-16.25L94.82-15.93L94.82-15.93Q97.25-21.01 101.14-21.01L101.14-21.01L101.14-21.01Q105.30-21.01 105.30-16.69L105.30-16.69L105.30-16.69Q105.30-14.90 104.11-12.91L104.11-12.91L104.11-12.91Q102.92-10.91 101.74-9.10L101.74-9.10L101.74-9.10Q100.55-7.29 100.55-5.89L100.55-5.89L99.25-5.89L99.25-5.89Q99.25-7.88 101.57-11.29L101.57-11.29L101.57-11.29Q103.90-14.69 103.90-16.55L103.90-16.55L103.90-16.55Q103.90-18.41 103.17-19.09L103.17-19.09L103.17-19.09Q102.44-19.76 101.01-19.76L101.01-19.76L101.01-19.76Q99.58-19.76 98.20-18.52L98.20-18.52L98.20-18.52Q96.82-17.28 95.90-15.39L95.90-15.39L95.90-15.39Q94.45-12.58 93.96-10.80L93.96-10.80L93.96-10.75L92.02 0L85.54 0L89.10-19.93L89.10-19.93Q87.48-19.76 86.40-18.41L86.40-18.41" fill="#268496" stroke="none" stroke-width="none" transform="translate(-142.10003662109375,13.844571603628303)" style="fill: rgb(59, 67, 104);"></path></g><g class="path" style="transform: scale(0.91); transform-origin: -26.38px 3.58457px; animation: 1s linear -0.406154s infinite normal forwards running breath-01202488-2f2e-4e23-af9a-f4556c24ea28;"><path d="M118.10-21.01L118.10-21.01L118.10-21.01Q124.96-21.01 124.96-15.55L124.96-15.55L124.96-15.55Q124.96-12.15 121.74-10.39L121.74-10.39L121.74-10.39Q118.53-8.64 112.59-8.59L112.59-8.59L112.59-8.59Q112.48-6.64 112.48-5.51L112.48-5.51L112.48-5.51Q112.48-3.08 113.59-1.92L113.59-1.92L113.59-1.92Q114.70-0.76 116.37-0.76L116.37-0.76L116.37-0.76Q118.04-0.76 119.42-1.40L119.42-1.40L119.42-1.40Q120.80-2.05 121.61-2.94L121.61-2.94L121.61-2.94Q122.42-3.83 123.01-4.81L123.01-4.81L123.01-4.81Q124.09-6.59 124.09-7.07L124.09-7.07L125.06-6.64L125.06-6.64Q124.90-5.78 124.09-4.35L124.09-4.35L124.09-4.35Q123.28-2.92 122.31-2.00L122.31-2.00L122.31-2.00Q121.34-1.08 119.45-0.30L119.45-0.30L119.45-0.30Q117.56 0.49 115.24 0.49L115.24 0.49L115.24 0.49Q110.86 0.49 108.62-1.59L108.62-1.59L108.62-1.59Q106.38-3.67 106.38-7.29L106.38-7.29L106.38-7.29Q106.38-13.72 109.57-17.36L109.57-17.36L109.57-17.36Q112.75-21.01 118.10-21.01zM123.61-15.55L123.61-15.55Q123.61-17.33 122.55-18.50L122.55-18.50L122.55-18.50Q121.50-19.66 119.42-19.66L119.42-19.66L119.42-19.66Q117.34-19.66 115.37-17.17L115.37-17.17L115.37-17.17Q113.40-14.69 112.75-9.83L112.75-9.83L112.75-9.83Q123.61-9.88 123.61-15.55L123.61-15.55" fill="#268496" stroke="none" stroke-width="none" transform="translate(-142.10003662109375,13.844571603628303)" style="fill: rgb(25, 29, 58);"></path></g><g class="path" style="transform: scale(0.91); transform-origin: -3.32003px 8.30957px; animation: 1s linear -0.355385s infinite normal forwards running breath-01202488-2f2e-4e23-af9a-f4556c24ea28;"><path d="M145.64 5.89L145.64 5.89L145.64 5.89Q147.58 5.89 148.99 4.37L148.99 4.37L149.74 5.02L149.74 5.02Q148.45 6.86 145.64 6.86L145.64 6.86L145.64 6.86Q144.45 6.86 143.21 6.59L143.21 6.59L143.21 6.59Q139.54 9.94 133.81 9.94L133.81 9.94L133.81 9.94Q130.41 9.94 128.55 8.78L128.55 8.78L128.55 8.78Q126.68 7.61 126.68 5.75L126.68 5.75L126.68 5.75Q126.68 3.89 127.84 2.78L127.84 2.78L127.84 2.78Q129.01 1.67 131.98 1.67L131.98 1.67L131.98 1.67Q134.95 1.67 139.81 4.10L139.81 4.10L141.48-4.86L141.48-4.86Q139.05-0.38 135.22-0.38L135.22-0.38L135.22-0.38Q127.87-0.38 127.87-7.61L127.87-7.61L127.87-7.61Q127.87-13.66 130.92-17.33L130.92-17.33L130.92-17.33Q133.97-21.01 138.73-21.01L138.73-21.01L138.73-21.01Q141.48-21.01 142.99-19.33L142.99-19.33L142.99-19.33Q143.42-18.85 143.86-17.87L143.86-17.87L144.34-20.52L144.34-20.52Q148.34-20.52 150.17-20.84L150.17-20.84L150.88-21.01L147.31-1.08L147.31-1.08Q146.50 3.13 144.07 5.72L144.07 5.72L144.07 5.72Q144.77 5.89 145.64 5.89zM133.97-5.94L133.97-5.94Q133.97-3.46 134.46-2.62L134.46-2.62L134.46-2.62Q134.95-1.78 136.30-1.78L136.30-1.78L136.30-1.78Q137.65-1.78 139.05-3.24L139.05-3.24L139.05-3.24Q140.45-4.70 141.07-5.97L141.07-5.97L141.07-5.97Q141.70-7.24 142.13-8.42L142.13-8.42L143.26-14.63L143.26-15.01L143.26-15.01Q143.26-19.98 138.73-19.98L138.73-19.98L138.73-19.98Q137.00-19.98 135.49-15.28L135.49-15.28L135.49-15.28Q133.97-10.58 133.97-5.94L133.97-5.94zM133.60 8.86L133.60 8.86L133.60 8.86Q137.92 8.86 139.43 5.13L139.43 5.13L138.67 4.75L138.67 4.75Q138.02 4.43 137.89 4.35L137.89 4.35L137.89 4.35Q137.75 4.27 137.16 4.00L137.16 4.00L137.16 4.00Q136.57 3.73 136.30 3.65L136.30 3.65L136.30 3.65Q136.03 3.56 135.46 3.35L135.46 3.35L135.46 3.35Q134.89 3.13 134.51 3.05L134.51 3.05L134.51 3.05Q134.14 2.97 133.65 2.86L133.65 2.86L133.65 2.86Q132.84 2.70 131.27 2.70L131.27 2.70L131.27 2.70Q129.71 2.70 128.76 3.46L128.76 3.46L128.76 3.46Q127.82 4.21 127.82 5.67L127.82 5.67L127.82 5.67Q127.82 7.13 129.38 7.99L129.38 7.99L129.38 7.99Q130.95 8.86 133.60 8.86" fill="#268496" stroke="none" stroke-width="none" transform="translate(-142.10003662109375,13.844571603628303)" style="fill: rgb(38, 132, 150);"></path></g><g class="path" style="transform: scale(0.91); transform-origin: 22.545px 3.58457px; animation: 1s linear -0.304615s infinite normal forwards running breath-01202488-2f2e-4e23-af9a-f4556c24ea28;"><path d="M172.04 0.49L172.04 0.49L172.04 0.49Q167.29 0.49 166.86-3.67L166.86-3.67L166.86-3.67Q164.48 0.49 160.87 0.49L160.87 0.49L160.87 0.49Q157.25 0.49 155.11-1.70L155.11-1.70L155.11-1.70Q152.98-3.89 152.98-7.83L152.98-7.83L152.98-7.83Q152.98-13.99 156.01-17.50L156.01-17.50L156.01-17.50Q159.03-21.01 163.84-21.01L163.84-21.01L163.84-21.01Q167.78-21.01 169.07-17.28L169.07-17.28L169.07-17.28Q169.34-18.90 169.67-20.52L169.67-20.52L169.67-20.52Q173.66-20.52 175.61-20.84L175.61-20.84L176.31-21.01L172.58-0.59L172.58-0.59Q174.20-0.76 175.28-2.11L175.28-2.11L176.09-1.46L176.09-1.46Q174.47 0.49 172.04 0.49zM159.08-5.08L159.08-5.08Q159.08-2.65 159.70-1.70L159.70-1.70L159.70-1.70Q160.33-0.76 161.62-0.76L161.62-0.76L161.62-0.76Q162.92-0.76 164.27-2.16L164.27-2.16L164.27-2.16Q166.05-4.00 167.13-6.80L167.13-6.80L167.13-6.80Q167.29-7.51 167.75-10.18L167.75-10.18L167.75-10.18Q168.21-12.85 168.53-14.58L168.53-14.58L168.53-14.58Q168.37-16.63 167.40-18.14L167.40-18.14L167.40-18.14Q166.43-19.66 164.97-19.66L164.97-19.66L164.97-19.66Q162.32-19.66 160.70-14.93L160.70-14.93L160.70-14.93Q159.08-10.21 159.08-5.08L159.08-5.08" fill="#268496" stroke="none" stroke-width="none" transform="translate(-142.10003662109375,13.844571603628303)" style="fill: rgb(104, 156, 197);"></path></g><g class="path" style="transform: scale(0.91); transform-origin: 49.305px 3.58457px; animation: 1s linear -0.253846s infinite normal forwards running breath-01202488-2f2e-4e23-af9a-f4556c24ea28;"><path d="M200.02-0.59L200.02-0.59L200.02-0.59Q201.31-0.59 202.72-2.11L202.72-2.11L203.53-1.46L203.53-1.46Q203.15-0.70 201.85-0.11L201.85-0.11L201.85-0.11Q200.56 0.49 198.99 0.49L198.99 0.49L198.99 0.49Q194.08 0.49 194.08-3.94L194.08-3.94L194.08-3.94Q194.08-5.83 195.05-10.69L195.05-10.69L195.05-10.69Q196.02-15.55 196.02-17.06L196.02-17.06L196.02-17.06Q196.02-19.39 193.81-19.39L193.81-19.39L193.81-19.39Q192.02-19.39 190.38-17.06L190.38-17.06L190.38-17.06Q188.73-14.74 187.65-10.69L187.65-10.69L185.81-0.59L185.81-0.59Q187.49-0.76 188.57-2.11L188.57-2.11L189.38-1.46L189.38-1.46Q187.76 0.49 185.33 0.49L185.33 0.49L185.33 0.49Q182.90 0.49 181.52-0.76L181.52-0.76L181.52-0.76Q180.14-2.00 180.14-4.00L180.14-4.00L180.14-4.00Q180.14-4.75 181.01-9.94L181.01-9.94L182.79-19.93L182.79-19.93Q181.17-19.76 180.09-18.41L180.09-18.41L179.28-19.06L179.28-19.06Q180.90-21.01 183.36-21.01L183.36-21.01L183.36-21.01Q185.81-21.01 187.16-19.76L187.16-19.76L187.16-19.76Q188.51-18.52 188.51-16.25L188.51-16.25L188.51-15.93L188.51-15.93Q190.73-21.01 195.43-21.01L195.43-21.01L195.43-21.01Q198.61-21.01 200.39-19.20L200.39-19.20L200.39-19.20Q202.18-17.39 202.18-14.20L202.18-14.20L202.18-14.20Q202.18-12.53 201.15-7.75L201.15-7.75L201.15-7.75Q200.12-2.97 200.02-0.59" fill="#268496" stroke="none" stroke-width="none" transform="translate(-142.10003662109375,13.844571603628303)" style="fill: rgb(94, 111, 163);"></path></g><g class="path" style="transform: scale(0.91); transform-origin: 76.195px -3.40543px; animation: 1s linear -0.203077s infinite normal forwards running breath-01202488-2f2e-4e23-af9a-f4556c24ea28;"><path d="M224.80 0.49L224.80 0.49L224.80 0.49Q220.05 0.49 219.62-3.56L219.62-3.56L219.62-3.56Q217.24 0.49 213.57 0.49L213.57 0.49L213.57 0.49Q209.90 0.49 207.95-1.59L207.95-1.59L207.95-1.59Q206.01-3.67 206.01-7.29L206.01-7.29L206.01-7.29Q206.01-13.66 209.03-17.33L209.03-17.33L209.03-17.33Q212.06-21.01 216.86-21.01L216.86-21.01L216.86-21.01Q219.62-21.01 221.13-19.33L221.13-19.33L221.13-19.33Q221.78-18.47 221.94-18.04L221.94-18.04L224.86-33.91L224.86-33.91Q223.24-33.75 222.16-32.40L222.16-32.40L221.35-33.05L221.35-33.05Q222.97-34.99 225.42-34.99L225.42-34.99L225.42-34.99Q227.88-34.99 229.23-33.75L229.23-33.75L229.23-33.75Q230.58-32.51 230.58-30.24L230.58-30.24L230.58-30.24Q230.58-29.81 230.47-28.84L230.47-28.84L230.47-28.84Q227.83-13.99 225.34-0.59L225.34-0.59L225.34-0.59Q226.96-0.76 228.04-2.11L228.04-2.11L228.85-1.46L228.85-1.46Q227.23 0.49 224.80 0.49zM212.11-5.08L212.11-5.08Q212.11-2.59 212.63-1.67L212.63-1.67L212.63-1.67Q213.14-0.76 214.24-0.76L214.24-0.76L214.24-0.76Q215.35-0.76 216.38-1.51L216.38-1.51L216.38-1.51Q217.40-2.27 218.11-3.46L218.11-3.46L218.11-3.46Q219.40-5.45 219.94-6.86L219.94-6.86L221.51-15.39L221.51-15.39Q221.40-17.12 220.37-18.55L220.37-18.55L220.37-18.55Q219.35-19.98 216.86-19.98L216.86-19.98L216.86-19.98Q215.14-19.98 213.62-14.90L213.62-14.90L213.62-14.90Q212.11-9.83 212.11-5.08L212.11-5.08" fill="#268496" stroke="none" stroke-width="none" transform="translate(-142.10003662109375,13.844571603628303)" style="fill: rgb(59, 67, 104);"></path></g><g class="path" style="transform: scale(0.91); transform-origin: 100.305px 3.58457px; animation: 1s linear -0.152308s infinite normal forwards running breath-01202488-2f2e-4e23-af9a-f4556c24ea28;"><path d="M240.30 0.49L240.30 0.49Q236.14 0.49 233.98-1.59L233.98-1.59L233.98-1.59Q231.82-3.67 231.82-6.83L231.82-6.83L231.82-6.83Q231.82-9.99 232.39-12.23L232.39-12.23L232.39-12.23Q232.96-14.47 234.25-16.55L234.25-16.55L234.25-16.55Q235.55-18.63 238.17-19.82L238.17-19.82L238.17-19.82Q240.79-21.01 244.70-21.01L244.70-21.01L244.70-21.01Q248.62-21.01 250.80-18.93L250.80-18.93L250.80-18.93Q252.99-16.85 252.99-13.23L252.99-13.23L252.99-13.23Q252.99-7.07 249.72-3.29L249.72-3.29L249.72-3.29Q246.46 0.49 240.30 0.49L240.30 0.49zM237.92-5.08L237.92-5.08L237.92-5.08Q237.92-0.76 240.43-0.76L240.43-0.76L240.43-0.76Q242.95-0.76 244.92-5.10L244.92-5.10L244.92-5.10Q246.89-9.45 246.89-15.44L246.89-15.44L246.89-15.44Q246.89-19.98 244.43-19.98L244.43-19.98L244.43-19.98Q241.97-19.98 239.95-15.85L239.95-15.85L239.95-15.85Q237.92-11.72 237.92-5.08" fill="#268496" stroke="none" stroke-width="none" transform="translate(-142.10003662109375,13.844571603628303)" style="fill: rgb(25, 29, 58);"></path></g><g class="path" style="transform: scale(0.91); transform-origin: 117.555px 10.3596px; animation: 1s linear -0.101538s infinite normal forwards running breath-01202488-2f2e-4e23-af9a-f4556c24ea28;"><path d="M256.88-0.70L256.88-0.70L256.88-0.70Q255.74-1.84 255.74-3.46L255.74-3.46L255.74-3.46Q255.74-5.08 256.88-6.24L256.88-6.24L256.88-6.24Q258.01-7.40 259.63-7.40L259.63-7.40L259.63-7.40Q261.25-7.40 262.41-6.24L262.41-6.24L262.41-6.24Q263.57-5.08 263.57-3.46L263.57-3.46L263.57-3.46Q263.57-1.84 262.41-0.70L262.41-0.70L262.41-0.70Q261.25 0.43 259.63 0.43L259.63 0.43L259.63 0.43Q258.01 0.43 256.88-0.70" fill="#268496" stroke="none" stroke-width="none" transform="translate(-142.10003662109375,13.844571603628303)" style="fill: rgb(38, 132, 150);"></path></g><g class="path" style="transform: scale(0.91); transform-origin: 130.355px 10.3596px; animation: 1s linear -0.0507692s infinite normal forwards running breath-01202488-2f2e-4e23-af9a-f4556c24ea28;"><path d="M269.68-0.70L269.68-0.70L269.68-0.70Q268.54-1.84 268.54-3.46L268.54-3.46L268.54-3.46Q268.54-5.08 269.68-6.24L269.68-6.24L269.68-6.24Q270.81-7.40 272.43-7.40L272.43-7.40L272.43-7.40Q274.05-7.40 275.21-6.24L275.21-6.24L275.21-6.24Q276.37-5.08 276.37-3.46L276.37-3.46L276.37-3.46Q276.37-1.84 275.21-0.70L275.21-0.70L275.21-0.70Q274.05 0.43 272.43 0.43L272.43 0.43L272.43 0.43Q270.81 0.43 269.68-0.70" fill="#268496" stroke="none" stroke-width="none" transform="translate(-142.10003662109375,13.844571603628303)" style="fill: rgb(104, 156, 197);"></path></g><g class="path" style="transform: scale(0.91); transform-origin: 143.155px 10.3596px; animation: 1s linear 0s infinite normal forwards running breath-01202488-2f2e-4e23-af9a-f4556c24ea28;"><path d="M282.47-0.70L282.47-0.70L282.47-0.70Q281.34-1.84 281.34-3.46L281.34-3.46L281.34-3.46Q281.34-5.08 282.47-6.24L282.47-6.24L282.47-6.24Q283.61-7.40 285.23-7.40L285.23-7.40L285.23-7.40Q286.85-7.40 288.01-6.24L288.01-6.24L288.01-6.24Q289.17-5.08 289.17-3.46L289.17-3.46L289.17-3.46Q289.17-1.84 288.01-0.70L288.01-0.70L288.01-0.70Q286.85 0.43 285.23 0.43L285.23 0.43L285.23 0.43Q283.61 0.43 282.47-0.70" fill="#268496" stroke="none" stroke-width="none" transform="translate(-142.10003662109375,13.844571603628303)" style="fill: rgb(94, 111, 163);"></path></g></g>
</g>
</g>
<style id="breath-01202488-2f2e-4e23-af9a-f4556c24ea28" data-anikit="">@keyframes breath-01202488-2f2e-4e23-af9a-f4556c24ea28
{
  0% {
    animation-timing-function: cubic-bezier(0.9647,0.2413,-0.0705,0.7911);
    transform: scale(0.9099999999999999);
  }
  51% {
    animation-timing-function: cubic-bezier(0.9226,0.2631,-0.0308,0.7628);
    transform: scale(1.02994);
  }
  100% {
    transform: scale(0.9099999999999999);
  }
}</style></svg>